<mxfile host="app.diagrams.net" modified="2023-11-14T18:11:42.938Z" agent="Mozilla/5.0 (Windows NT 10.0; Win64; x64) AppleWebKit/537.36 (KHTML, like Gecko) Chrome/119.0.0.0 Safari/537.36" etag="QKilZCQ9aYZ79-k_SyMK" version="22.1.1" type="github">
  <diagram name="Trang-1" id="ZfD5Ys0rBInNUp4D3P7Z">
    <mxGraphModel dx="1290" dy="574" grid="1" gridSize="10" guides="1" tooltips="1" connect="1" arrows="1" fold="1" page="1" pageScale="1" pageWidth="827" pageHeight="1169" math="0" shadow="0">
      <root>
        <mxCell id="0" />
        <mxCell id="1" parent="0" />
        <mxCell id="cEVJ6mhnJ1n4Fk9yhqo5-14" value="" style="edgeStyle=orthogonalEdgeStyle;rounded=0;orthogonalLoop=1;jettySize=auto;html=1;strokeColor=#FF3333;" edge="1" parent="1" source="cEVJ6mhnJ1n4Fk9yhqo5-1" target="cEVJ6mhnJ1n4Fk9yhqo5-2">
          <mxGeometry relative="1" as="geometry" />
        </mxCell>
        <mxCell id="cEVJ6mhnJ1n4Fk9yhqo5-20" style="edgeStyle=orthogonalEdgeStyle;rounded=0;orthogonalLoop=1;jettySize=auto;html=1;exitX=1;exitY=0.5;exitDx=0;exitDy=0;entryX=0;entryY=0.5;entryDx=0;entryDy=0;strokeColor=#FF3333;" edge="1" parent="1" source="cEVJ6mhnJ1n4Fk9yhqo5-1" target="cEVJ6mhnJ1n4Fk9yhqo5-4">
          <mxGeometry relative="1" as="geometry" />
        </mxCell>
        <mxCell id="cEVJ6mhnJ1n4Fk9yhqo5-32" style="edgeStyle=orthogonalEdgeStyle;rounded=0;orthogonalLoop=1;jettySize=auto;html=1;exitX=0;exitY=0.75;exitDx=0;exitDy=0;entryX=0.5;entryY=1;entryDx=0;entryDy=0;" edge="1" parent="1" source="cEVJ6mhnJ1n4Fk9yhqo5-1" target="cEVJ6mhnJ1n4Fk9yhqo5-6">
          <mxGeometry relative="1" as="geometry" />
        </mxCell>
        <mxCell id="cEVJ6mhnJ1n4Fk9yhqo5-33" style="edgeStyle=orthogonalEdgeStyle;rounded=0;orthogonalLoop=1;jettySize=auto;html=1;exitX=0;exitY=0.25;exitDx=0;exitDy=0;entryX=0;entryY=0.75;entryDx=0;entryDy=0;" edge="1" parent="1" source="cEVJ6mhnJ1n4Fk9yhqo5-1" target="cEVJ6mhnJ1n4Fk9yhqo5-3">
          <mxGeometry relative="1" as="geometry" />
        </mxCell>
        <mxCell id="cEVJ6mhnJ1n4Fk9yhqo5-1" value="RENTAL" style="rounded=1;whiteSpace=wrap;html=1;strokeColor=#FF3333;" vertex="1" parent="1">
          <mxGeometry x="354" y="390" width="120" height="60" as="geometry" />
        </mxCell>
        <mxCell id="cEVJ6mhnJ1n4Fk9yhqo5-15" value="" style="edgeStyle=orthogonalEdgeStyle;rounded=0;orthogonalLoop=1;jettySize=auto;html=1;" edge="1" parent="1" source="cEVJ6mhnJ1n4Fk9yhqo5-2" target="cEVJ6mhnJ1n4Fk9yhqo5-3">
          <mxGeometry relative="1" as="geometry" />
        </mxCell>
        <mxCell id="cEVJ6mhnJ1n4Fk9yhqo5-26" style="edgeStyle=orthogonalEdgeStyle;rounded=0;orthogonalLoop=1;jettySize=auto;html=1;entryX=0.25;entryY=1;entryDx=0;entryDy=0;" edge="1" parent="1" source="cEVJ6mhnJ1n4Fk9yhqo5-2" target="cEVJ6mhnJ1n4Fk9yhqo5-10">
          <mxGeometry relative="1" as="geometry" />
        </mxCell>
        <mxCell id="cEVJ6mhnJ1n4Fk9yhqo5-2" value="STAFF" style="rounded=1;whiteSpace=wrap;html=1;strokeColor=#FF3333;" vertex="1" parent="1">
          <mxGeometry x="354" y="290" width="120" height="60" as="geometry" />
        </mxCell>
        <mxCell id="cEVJ6mhnJ1n4Fk9yhqo5-18" style="edgeStyle=orthogonalEdgeStyle;rounded=0;orthogonalLoop=1;jettySize=auto;html=1;entryX=0;entryY=0.5;entryDx=0;entryDy=0;" edge="1" parent="1" source="cEVJ6mhnJ1n4Fk9yhqo5-3" target="cEVJ6mhnJ1n4Fk9yhqo5-10">
          <mxGeometry relative="1" as="geometry" />
        </mxCell>
        <mxCell id="cEVJ6mhnJ1n4Fk9yhqo5-3" value="STORE" style="rounded=1;whiteSpace=wrap;html=1;" vertex="1" parent="1">
          <mxGeometry x="354" y="190" width="120" height="60" as="geometry" />
        </mxCell>
        <mxCell id="cEVJ6mhnJ1n4Fk9yhqo5-19" style="edgeStyle=orthogonalEdgeStyle;rounded=0;orthogonalLoop=1;jettySize=auto;html=1;entryX=0.5;entryY=1;entryDx=0;entryDy=0;" edge="1" parent="1" source="cEVJ6mhnJ1n4Fk9yhqo5-4" target="cEVJ6mhnJ1n4Fk9yhqo5-10">
          <mxGeometry relative="1" as="geometry" />
        </mxCell>
        <mxCell id="cEVJ6mhnJ1n4Fk9yhqo5-4" value="CUSTOMER" style="rounded=1;whiteSpace=wrap;html=1;strokeColor=#FF3333;" vertex="1" parent="1">
          <mxGeometry x="560" y="390" width="120" height="60" as="geometry" />
        </mxCell>
        <mxCell id="cEVJ6mhnJ1n4Fk9yhqo5-27" style="edgeStyle=orthogonalEdgeStyle;rounded=0;orthogonalLoop=1;jettySize=auto;html=1;exitX=0.5;exitY=0;exitDx=0;exitDy=0;entryX=0.5;entryY=1;entryDx=0;entryDy=0;" edge="1" parent="1" source="cEVJ6mhnJ1n4Fk9yhqo5-6" target="cEVJ6mhnJ1n4Fk9yhqo5-8">
          <mxGeometry relative="1" as="geometry" />
        </mxCell>
        <mxCell id="cEVJ6mhnJ1n4Fk9yhqo5-28" style="edgeStyle=orthogonalEdgeStyle;rounded=0;orthogonalLoop=1;jettySize=auto;html=1;entryX=0.25;entryY=1;entryDx=0;entryDy=0;" edge="1" parent="1" source="cEVJ6mhnJ1n4Fk9yhqo5-6" target="cEVJ6mhnJ1n4Fk9yhqo5-9">
          <mxGeometry relative="1" as="geometry" />
        </mxCell>
        <mxCell id="cEVJ6mhnJ1n4Fk9yhqo5-30" style="edgeStyle=orthogonalEdgeStyle;rounded=0;orthogonalLoop=1;jettySize=auto;html=1;" edge="1" parent="1" source="cEVJ6mhnJ1n4Fk9yhqo5-6" target="cEVJ6mhnJ1n4Fk9yhqo5-7">
          <mxGeometry relative="1" as="geometry" />
        </mxCell>
        <mxCell id="cEVJ6mhnJ1n4Fk9yhqo5-6" value="FILM" style="rounded=1;whiteSpace=wrap;html=1;" vertex="1" parent="1">
          <mxGeometry x="160" y="190" width="120" height="60" as="geometry" />
        </mxCell>
        <mxCell id="cEVJ6mhnJ1n4Fk9yhqo5-7" value="CATEGORY" style="rounded=1;whiteSpace=wrap;html=1;" vertex="1" parent="1">
          <mxGeometry x="20" y="60" width="120" height="60" as="geometry" />
        </mxCell>
        <mxCell id="cEVJ6mhnJ1n4Fk9yhqo5-8" value="LANGUAGE" style="rounded=1;whiteSpace=wrap;html=1;" vertex="1" parent="1">
          <mxGeometry x="160" y="60" width="120" height="60" as="geometry" />
        </mxCell>
        <mxCell id="cEVJ6mhnJ1n4Fk9yhqo5-9" value="ACTOR" style="rounded=1;whiteSpace=wrap;html=1;" vertex="1" parent="1">
          <mxGeometry x="300" y="60" width="120" height="60" as="geometry" />
        </mxCell>
        <mxCell id="cEVJ6mhnJ1n4Fk9yhqo5-24" style="edgeStyle=orthogonalEdgeStyle;rounded=0;orthogonalLoop=1;jettySize=auto;html=1;exitX=0.5;exitY=0;exitDx=0;exitDy=0;entryX=0.5;entryY=1;entryDx=0;entryDy=0;" edge="1" parent="1" source="cEVJ6mhnJ1n4Fk9yhqo5-10" target="cEVJ6mhnJ1n4Fk9yhqo5-11">
          <mxGeometry relative="1" as="geometry" />
        </mxCell>
        <mxCell id="cEVJ6mhnJ1n4Fk9yhqo5-10" value="ADDRESS" style="rounded=1;whiteSpace=wrap;html=1;" vertex="1" parent="1">
          <mxGeometry x="560" y="230" width="120" height="60" as="geometry" />
        </mxCell>
        <mxCell id="cEVJ6mhnJ1n4Fk9yhqo5-25" style="edgeStyle=orthogonalEdgeStyle;rounded=0;orthogonalLoop=1;jettySize=auto;html=1;exitX=0.5;exitY=0;exitDx=0;exitDy=0;entryX=0.5;entryY=1;entryDx=0;entryDy=0;" edge="1" parent="1" source="cEVJ6mhnJ1n4Fk9yhqo5-11" target="cEVJ6mhnJ1n4Fk9yhqo5-12">
          <mxGeometry relative="1" as="geometry" />
        </mxCell>
        <mxCell id="cEVJ6mhnJ1n4Fk9yhqo5-11" value="CITY" style="rounded=1;whiteSpace=wrap;html=1;" vertex="1" parent="1">
          <mxGeometry x="560" y="135" width="120" height="60" as="geometry" />
        </mxCell>
        <mxCell id="cEVJ6mhnJ1n4Fk9yhqo5-12" value="COUNTRY" style="rounded=1;whiteSpace=wrap;html=1;" vertex="1" parent="1">
          <mxGeometry x="560" y="40" width="120" height="60" as="geometry" />
        </mxCell>
      </root>
    </mxGraphModel>
  </diagram>
</mxfile>
